PathFileType	4	(X/Y/Z)	C:\Users\WrightLab\Desktop\Jo\P3_4.trc
DataRate	CameraRate	NumFrames	NumMarkers	Units	OrigDataRate	OrigDataStartFrame	OrigNumFrames
100.00	100.00	       14	19	mm	100.00	160	       639
Frame#	Time	Headset_Front			Headset_Back			Headset_Left			Headset_Right			Left_Shoulder			Right_Shoulder			Sternum			C7			Left Elbow			Right Elbow			Left Wrist			Right Wrist			Left ASIS			Right ASIS			S2			Left Knee			Right Knee			Left Ankle			Right Ankle			
		X1	Y1	Z1	X2	Y2	Z2	X3	Y3	Z3	X4	Y4	Z4	X5	Y5	Z5	X6	Y6	Z6	X7	Y7	Z7	X8	Y8	Z8	X9	Y9	Z9	X10	Y10	Z10	X11	Y11	Z11	X12	Y12	Z12	X13	Y13	Z13	X14	Y14	Z14	X15	Y15	Z15	X16	Y16	Z16	X17	Y17	Z17	X18	Y18	Z18	X19	Y19	Z19	

160	1.590	-674.71301	1590.49915	-781.29816	-638.28217	1486.38000	-493.36322				-758.51404	1515.76904	-590.36957	-476.03024	1318.00806	-714.87970	-828.51031	1329.97400	-755.98633	-664.23755	1212.83630	-599.41754	-652.78540	1369.47827	-789.12622	-400.96002	988.65582	-699.91992	-915.37256	987.73199	-764.23932	-419.43503	808.18341	-590.21808	-945.21521	815.75488	-611.34387	-570.51978	838.47321	-596.21350				-660.69141	919.44135	-829.81512	-605.40881	415.81735	-632.29816	-846.50098	435.38809	-561.36896	-637.10809	89.18673	-689.14227				
161	1.600	-675.83569	1591.75159	-772.05286	-639.47809	1485.77563	-485.13818				-759.94604	1516.17871	-581.97528	-477.35080	1318.87622	-708.20197	-829.65643	1330.12830	-747.02618	-664.40729	1212.91296	-591.46460	-654.09772	1369.91333	-780.03308	-401.93414	989.45172	-690.54291	-916.19806	987.80688	-754.50409	-419.72018	810.72308	-578.37183	-946.76520	817.78131	-601.43359	-570.45221	838.44934	-590.07898				-661.99225	918.54736	-821.76642	-606.74512	414.91843	-629.13605	-847.03778	439.74606	-545.96606	-637.44464	89.28810	-688.49969				
162	1.610	-677.14093	1592.48035	-762.73145	-639.44843	1485.23413	-476.72842				-763.61786	1518.02820	-574.55566	-478.12762	1319.58228	-700.68109	-830.59332	1330.51782	-738.69751	-664.53558	1213.55884	-582.83856	-655.39319	1370.79944	-772.44727	-403.18506	989.89764	-681.81586	-916.84149	988.13745	-745.42432	-421.20590	812.23969	-567.17566	-947.18744	819.00720	-589.39099	-570.79175	837.26447	-583.79590				-663.96173	919.28107	-814.30066	-606.52032	415.08325	-626.89624	-846.94666	444.07611	-531.40381	-637.47357	89.25077	-688.49896	-826.79028	178.99199	-742.83301	
163	1.620	-678.37842	1593.15845	-753.91528	-641.00000	1485.19971	-468.83118				-763.36456	1517.04285	-564.69342	-479.07071	1319.79456	-693.05261	-832.03961	1331.05383	-730.09283	-665.71960	1213.36707	-575.51294	-656.78864	1371.07092	-764.41052	-404.37979	990.99451	-672.35333	-917.74109	987.96234	-736.25916	-422.68024	814.39063	-557.45563	-947.51849	820.00037	-579.47211	-569.77130	837.32794	-575.85876				-665.38025	919.26770	-806.70624	-607.13525	415.10995	-624.37506	-846.67737	447.05374	-516.27783	-637.98517	89.24975	-687.92889	-831.65192	170.28706	-723.12305	
164	1.630	-679.61780	1593.42920	-745.06110							-763.68323	1517.26147	-555.65765	-480.40915	1320.29846	-685.07001	-832.91785	1330.69922	-721.29266	-664.71600	1213.87671	-567.16461	-658.05499	1371.75793	-755.91370	-405.31262	991.23920	-662.97168	-918.42700	987.93597	-726.92291	-424.40274	815.74200	-545.87488	-948.36523	821.35089	-568.39319	-569.35645	837.58575	-568.93213	-820.88922	852.52130	-609.66248	-666.80768	919.15277	-799.16254	-606.34314	414.93820	-622.46472	-846.89148	450.05585	-502.84821	-637.80206	90.04804	-686.73755	-835.11810	165.55338	-694.31909	
165	1.640	-680.72809	1593.75244	-736.37445							-764.28137	1517.24097	-546.72131	-480.91751	1320.80530	-677.96606	-834.41180	1330.96802	-712.30463	-664.69672	1214.10608	-559.51263	-659.52246	1371.92017	-747.95850	-405.56787	992.09692	-654.59821	-919.04504	987.85095	-717.55255	-425.96964	817.77325	-535.48517	-948.66956	822.73370	-557.52002	-571.39258	836.22931	-563.26324	-820.31165	854.29474	-596.79889	-668.67468	920.10718	-792.02771	-606.83826	414.82968	-619.97516	-846.39435	452.15012	-490.18805	-638.22290	90.38234	-685.96606	-837.90308	160.31819	-666.96527	
166	1.650	-681.94708	1593.72937	-727.52820	-640.31281	1484.99487	-442.72458				-764.68976	1517.15942	-537.76459	-482.13742	1321.48621	-672.32233	-835.31274	1330.65601	-703.17316	-665.19043	1213.38928	-551.78790	-660.71307	1372.42175	-739.78491	-407.72614	991.63660	-644.64984	-919.77185	987.46844	-707.90875	-427.32281	819.06696	-525.29529	-949.35913	823.21240	-546.32892	-572.02716	835.08484	-557.60858				-670.07739	918.99390	-783.09778	-607.10431	414.47009	-617.17487	-846.00171	454.52887	-477.29797	-638.27698	90.32108	-685.96796	-841.14929	154.16678	-637.99738	
167	1.660	-683.04883	1593.65015	-718.80103							-765.21008	1517.00928	-528.56049	-482.70444	1320.85986	-662.41022	-836.44568	1330.59778	-693.84595	-665.45856	1212.88025	-543.27869	-662.19183	1372.30139	-731.62311	-408.35358	992.37341	-636.78094	-920.43665	987.01154	-698.51978	-428.67169	820.42969	-514.88159	-949.29553	823.68469	-536.21051	-571.20258	835.67407	-549.38147				-671.87402	919.48956	-776.97742	-607.01355	413.95804	-613.54578	-843.39392	455.31961	-465.38757	-637.65491	90.51598	-685.42883	-844.71246	147.62415	-609.54852	
168	1.670	-684.09436	1593.42786	-710.14679							-761.45496	1514.63574	-518.53644	-484.25790	1321.18115	-655.73181	-837.24945	1330.13745	-684.09949	-665.17395	1212.07825	-534.75763	-663.40918	1372.20691	-723.16583	-409.23154	992.34741	-627.63062	-920.98755	986.70331	-688.82220	-430.64307	822.08209	-504.01907	-949.74530	824.24921	-526.77106	-570.09045	835.52661	-542.47729				-673.59442	919.18481	-768.24390	-607.27679	412.83588	-611.01459	-842.89777	456.75943	-453.32263	-637.42004	90.42229	-684.87146	-847.57330	141.95160	-582.79474	
169	1.680	-685.23279	1592.87341	-701.52948							-761.87268	1513.63464	-509.66199	-485.31607	1320.63818	-647.68903	-838.00836	1329.72400	-674.74115	-665.63885	1211.68701	-526.26306	-664.74634	1371.85938	-714.81421	-410.52466	991.81256	-618.24866	-921.71942	986.13171	-678.77008	-432.42319	823.06525	-493.90106	-948.82990	823.17029	-515.72430	-571.38916	834.14514	-534.73059	-821.47784	854.85278	-564.93115	-675.72906	919.86053	-761.51996	-608.15955	412.31857	-607.12903	-842.48773	457.06421	-443.00504	-638.20251	90.29765	-683.48657	-849.84119	136.69879	-555.78516	
170	1.690	-686.25702	1592.44092	-692.89386							-762.72479	1513.66052	-500.55081	-485.72156	1320.46191	-640.74304	-838.86462	1329.26941	-665.03839	-665.48798	1210.60181	-518.64941	-665.98401	1372.00952	-708.02319	-411.70755	991.75232	-611.34192	-922.39709	985.88068	-669.76373	-432.39777	824.39294	-484.14145	-949.06952	823.86517	-505.25229	-572.57538	833.51990	-531.77051				-677.55621	919.53326	-752.94415	-607.06506	413.15131	-602.90894	-841.46625	457.56052	-432.79044	-638.59937	90.24992	-682.74817	-852.43671	131.76312	-528.02045	
171	1.700	-687.32391	1591.51868	-683.77936	-562.57263	1505.60266	-440.67728				-763.02100	1512.77405	-491.48709	-487.34369	1320.07617	-633.11871	-839.70343	1328.43701	-655.21515	-664.76898	1209.10291	-510.09113	-667.27496	1371.17285	-698.48584	-412.76044	991.20251	-602.58405	-923.31451	984.96021	-658.98682	-434.04764	825.69299	-474.05386	-949.08740	823.27551	-494.13248	-572.68677	833.13904	-524.08429	-821.41467	855.74982	-538.61548	-679.30829	918.87775	-745.78149	-607.42950	412.24637	-600.02820	-840.93976	457.74228	-423.11255	-638.39105	90.64854	-681.66852	-854.22723	127.00933	-499.42886	
172	1.710										-763.93927	1512.79126	-482.83353	-487.47128	1318.92212	-625.55554	-840.81018	1327.48254	-645.57648	-665.42749	1209.14453	-502.23526	-668.43408	1370.73059	-690.12378	-414.00592	991.18799	-594.45020	-924.17572	984.37665	-648.91718	-435.31140	826.34766	-464.32687	-948.12378	822.49554	-484.78061	-571.64459	832.62054	-516.44580				-680.81635	917.17499	-736.45117	-607.39709	411.73544	-595.27765	-841.11243	457.10944	-413.89014	-638.43707	90.76852	-681.16870	-856.71716	122.97501	-471.17151	
173	1.720	-689.58746	1589.33545	-666.67694							-764.26025	1511.93774	-474.17828	-488.53943	1318.32800	-618.27356	-841.47327	1326.98633	-636.46790	-664.67822	1207.43298	-492.43433	-669.70081	1369.98572	-680.64758	-414.74808	990.54120	-586.69452	-925.28271	983.56799	-638.62872	-437.15506	826.43872	-454.73367	-948.58905	821.88446	-473.92123	-571.92438	831.98242	-509.92490				-683.21539	917.62024	-729.68109	-607.95227	410.94278	-591.75232	-839.81067	456.67834	-405.19324	-637.63983	91.26798	-680.29456	-858.14966	120.37624	-443.55734	
